<svg xmlns="http://www.w3.org/2000/svg" width="48" height="48" viewBox="0 0 48 48">
    <g>
        <g fill="#fff" stroke="#e5e5e5" transform="translate(-833 -703) translate(833 703)">
            <circle cx="24" cy="24" r="24" stroke="none"/>
            <circle cx="24" cy="24" r="23.5" fill="none"/>
        </g>
        <g fill-rule="evenodd">
            <path fill="#3e82f1" d="M702.007 709.882a11.712 11.712 0 0 0-.186-2.087h-9.61v3.947h5.489a4.694 4.694 0 0 1-2.036 3.08v2.56h3.3a9.953 9.953 0 0 0 3.043-7.5z" transform="translate(-833 -703) translate(260.938 96.055) translate(-95.945 -78.501)"/>
            <path fill="#32a753" d="M606.472 755.527a9.742 9.742 0 0 0 6.753-2.472l-3.3-2.56a6.156 6.156 0 0 1-9.165-3.233h-3.409v2.644a10.2 10.2 0 0 0 9.119 5.622z" transform="translate(-833 -703) translate(260.938 96.055) translate(-10.206 -114.174)"/>
            <path fill="#f9bb00" d="M590.557 685.945a6.031 6.031 0 0 1 0-3.878v-2.644h-3.409a10.217 10.217 0 0 0 0 9.165l3.409-2.644z" transform="translate(-833 -703) translate(260.938 96.055) translate(0 -52.857)"/>
            <path fill="#e74133" d="M606.472 625a5.512 5.512 0 0 1 3.9 1.526l2.928-2.926a9.807 9.807 0 0 0-6.827-2.658 10.2 10.2 0 0 0-9.119 5.622l3.409 2.644a6.081 6.081 0 0 1 5.71-4.207z" transform="translate(-833 -703) translate(260.938 96.055) translate(-10.206)"/>
        </g>
    </g>
</svg>
