<svg xmlns="http://www.w3.org/2000/svg" width="48" height="48" viewBox="0 0 48 48">
    <g transform="translate(-833 -703)">
        <circle cx="24" cy="24" r="24" fill="#ffe200" transform="translate(833 703)"/>
        <path fill="#462d2d" d="M168.86 125.86c-5.524 0-10 3.54-10 7.906 0 2.842 1.9 5.333 4.744 6.726-.21.781-.757 2.828-.868 3.267-.135.544.2.537.419.39.172-.115 2.74-1.861 3.848-2.614a12.657 12.657 0 0 0 1.856.136c5.523 0 10-3.539 10-7.905s-4.477-7.906-10-7.906" transform="translate(688.14 592.14)"/>
    </g>
</svg>
